<svg width="76" height="76" viewBox="0 0 76 76" fill="none" xmlns="http://www.w3.org/2000/svg">
<path d="M35.9012 36.5199H40.0926C41.8212 36.5199 43.226 35.115 43.226 33.3864V30.6866H45.9259C47.6544 30.6866 49.0593 29.2817 49.0593 27.5531V23.3617C49.0593 21.6331 47.6544 20.2283 45.9259 20.2283H43.226V17.5285C43.226 15.7999 41.8212 14.395 40.0926 14.395H35.9012C34.1726 14.395 32.7677 15.7999 32.7677 17.5285V20.2283H30.0679C28.3393 20.2283 26.9344 21.6331 26.9344 23.3617V27.5531C26.9344 29.2817 28.3393 30.6866 30.0679 30.6866H32.7677V33.3864C32.7735 35.115 34.1726 36.5199 35.9012 36.5199ZM30.0737 28.3741C29.6227 28.3741 29.2527 28.0041 29.2527 27.5531V23.3617C29.2527 22.9108 29.6227 22.5408 30.0737 22.5408H34.2651C34.716 22.5408 35.086 22.1708 35.086 21.7199V17.5285C35.086 17.0775 35.456 16.7075 35.9069 16.7075H40.0984C40.5493 16.7075 40.9193 17.0775 40.9193 17.5285V21.7199C40.9193 22.1708 41.2893 22.5408 41.7402 22.5408H45.9316C46.3826 22.5408 46.7526 22.9108 46.7526 23.3617V27.5531C46.7526 28.0041 46.3826 28.3741 45.9316 28.3741H41.7402C41.2893 28.3741 40.9193 28.7441 40.9193 29.195V33.3864C40.9193 33.8374 40.5493 34.2074 40.0984 34.2074H35.9069C35.456 34.2074 35.086 33.8374 35.086 33.3864V29.195C35.086 28.7441 34.716 28.3741 34.2651 28.3741H30.0737Z" fill="#127BD7"/>
<path d="M54.1873 39.4844C60.072 39.4844 64.8436 44.256 64.8436 50.1406C64.8436 56.0253 60.072 60.7969 54.1873 60.7969C48.3029 60.791 43.537 56.0251 43.5311 50.1406C43.5311 44.256 48.3027 39.4844 54.1873 39.4844ZM54.1873 42.2969C49.8565 42.2969 46.3436 45.8098 46.3436 50.1406C46.3436 54.4715 49.8565 57.9844 54.1873 57.9844C58.5182 57.9844 62.0311 54.4715 62.0311 50.1406C62.0311 45.8098 58.5182 42.2969 54.1873 42.2969Z" fill="#333333" stroke="#333333" stroke-width="0.5"/>
<path d="M10.6756 56.3125C11.0158 56.9871 11.4122 57.6274 11.8709 58.2334L12.033 58.4473L11.8094 58.5938C6.66526 61.9642 3.56808 67.6958 3.56232 73.8438L3.55548 73.9873C3.48309 74.6944 2.88163 75.25 2.15607 75.25C1.38207 75.25 0.74984 74.6177 0.749817 73.8438L0.760559 73.1777C0.982312 66.3171 4.53482 59.9728 10.3162 56.2148L10.5496 56.0635L10.6756 56.3125Z" fill="#333333" stroke="#333333" stroke-width="0.5"/>
<path d="M33.3148 56.21C39.2766 60.0949 42.8685 66.7296 42.8743 73.8438C42.8743 74.6177 42.242 75.25 41.4681 75.25C40.6943 75.2498 40.0619 74.6176 40.0618 73.8438L40.053 73.2686C39.8613 67.3397 36.7986 61.8587 31.8206 58.5879L31.598 58.4414L31.7591 58.2285C32.2126 57.6276 32.6153 56.9812 32.9554 56.3066L33.0804 56.0566L33.3148 56.21Z" fill="#333333" stroke="#333333" stroke-width="0.5"/>
<path d="M21.8123 40.0625C27.697 40.0625 32.4686 44.8341 32.4686 50.7188C32.4686 56.6034 27.697 61.375 21.8123 61.375C15.9279 61.3691 11.162 56.6032 11.1561 50.7188C11.1561 44.8341 15.9277 40.0625 21.8123 40.0625ZM21.8123 42.875C17.4815 42.875 13.9686 46.3879 13.9686 50.7188C13.9686 55.0496 17.4815 58.5625 21.8123 58.5625C26.1432 58.5625 29.6561 55.0496 29.6561 50.7188C29.6561 46.3879 26.1432 42.875 21.8123 42.875Z" fill="#333333" stroke="#333333" stroke-width="0.5"/>
<path d="M65.4559 56.0635C71.5522 59.9249 75.244 66.6299 75.2498 73.8438C75.2498 74.6177 74.6175 75.25 73.8436 75.25C73.0697 75.2499 72.4374 74.6177 72.4373 73.8438L72.4276 73.2568C72.2283 67.2079 69.0434 61.6314 63.8943 58.3994L63.6541 58.249L63.8338 58.0303C64.3098 57.4466 64.7346 56.8169 65.1033 56.1533L65.2322 55.9219L65.4559 56.0635Z" fill="#333333" stroke="#333333" stroke-width="0.5"/>
<path d="M38.0067 0.75L38.3055 0.766602C38.9987 0.830989 39.6628 1.07903 40.2371 1.48047H40.2381C46.7193 5.8299 54.3211 8.21464 62.1238 8.35254H62.2469C63.9657 8.35881 65.3465 9.7544 65.3465 11.4648L65.3836 12.4336C65.7122 22.4107 64.1679 31.2571 60.6951 39.1875L60.5838 39.4404L60.3426 39.3047C59.6789 38.9303 58.9818 38.6125 58.2625 38.3633L58.0067 38.2754L58.1151 38.0273C61.5586 30.1205 62.8729 21.5494 62.5692 12.4707L62.534 11.5908C62.5233 11.3485 62.473 11.2733 62.4383 11.2432C62.3957 11.2062 62.3038 11.1707 62.0672 11.165V11.1641C53.7293 11.03 45.6008 8.48363 38.6815 3.82617L38.6697 3.81836C38.4746 3.67089 38.2448 3.58193 38.0027 3.56445C37.7605 3.58186 37.53 3.67074 37.3348 3.81836L37.324 3.82617C30.4045 8.4838 22.2755 11.0301 13.9373 11.1641C13.7014 11.1697 13.6098 11.2063 13.5672 11.2432C13.5412 11.2657 13.5056 11.3136 13.4852 11.4385L13.4705 11.5908C13.0498 20.9959 14.3358 29.8655 17.8904 38.0273L17.9979 38.2754L17.743 38.3633C17.0235 38.6125 16.3258 38.9302 15.6619 39.3047L15.4217 39.4404L15.3104 39.1875C11.7256 31.0013 10.1951 21.8392 10.659 11.4648C10.659 9.75445 12.0389 8.35889 13.7576 8.35254H13.8817C21.4405 8.21892 28.8106 5.97697 35.1561 1.88281L35.7674 1.48047C36.4239 1.02147 37.1983 0.76291 37.9988 0.75H38.0067Z" fill="#333333" stroke="#333333" stroke-width="0.5"/>
<path d="M43.2723 56.1543C43.6347 56.8168 44.0585 57.445 44.5447 58.0273L44.7283 58.2471L44.4871 58.3994C43.2781 59.1636 42.1602 60.0707 41.1619 61.0918L40.949 61.3096L40.7762 61.0576C40.3409 60.4219 39.8771 59.8045 39.3856 59.2158L39.2391 59.0391L39.4022 58.8779C40.4725 57.8193 41.6484 56.8766 42.9178 56.0635L43.1434 55.9189L43.2723 56.1543Z" fill="#333333" stroke="#333333" stroke-width="0.5"/>
</svg>
