<svg xmlns="http://www.w3.org/2000/svg" version="1.1" xmlns:xlink="http://www.w3.org/1999/xlink"
  xmlns:svgjs="http://svgjs.dev/svgjs" viewBox="0 0 1422 800">
  <defs>
    <linearGradient x1="50%" y1="0%" x2="50%" y2="100%" id="oooscillate-grad">
      <stop stop-color="hsl(0, 0%, 85%)" stop-opacity="1" offset="0%"></stop>
      <stop stop-color="hsl(0, 0%, 74%)" stop-opacity="1" offset="100%"></stop>
    </linearGradient>
  </defs>
  <g stroke-width="1" stroke="url(#oooscillate-grad)" fill="none" stroke-linecap="round">
    <path d="M 0 385 Q 355.5 -45 711 400 Q 1066.5 845 1422 385" opacity="0.93"></path>
    <path d="M 0 350 Q 355.5 -45 711 400 Q 1066.5 845 1422 350" opacity="0.98"></path>
    <path d="M 0 315 Q 355.5 -45 711 400 Q 1066.5 845 1422 315" opacity="0.77"></path>
    <path d="M 0 280 Q 355.5 -45 711 400 Q 1066.5 845 1422 280" opacity="0.35"></path>
    <path d="M 0 245 Q 355.5 -45 711 400 Q 1066.5 845 1422 245" opacity="0.26"></path>
    <path d="M 0 210 Q 355.5 -45 711 400 Q 1066.5 845 1422 210" opacity="0.73"></path>
    <path d="M 0 175 Q 355.5 -45 711 400 Q 1066.5 845 1422 175" opacity="0.80"></path>
    <path d="M 0 140 Q 355.5 -45 711 400 Q 1066.5 845 1422 140" opacity="0.21"></path>
    <path d="M 0 105 Q 355.5 -45 711 400 Q 1066.5 845 1422 105" opacity="0.44"></path>
    <path d="M 0 70 Q 355.5 -45 711 400 Q 1066.5 845 1422 70" opacity="0.12"></path>
  </g>
</svg>