<svg id="wave" style="transform:rotate(180deg); transition: 0.3s" viewBox="0 0 1440 140" version="1.1"
  xmlns="http://www.w3.org/2000/svg">
  <defs>
    <linearGradient id="sw-gradient-0" x1="0" x2="0" y1="1" y2="0">
      <stop stop-color="rgba(58.046, 143.627, 150.183, 1)" offset="0%"></stop>
      <stop stop-color="rgba(221.754, 252.638, 250.65, 1)" offset="100%"></stop>
    </linearGradient>
  </defs>
  <path style="transform:translate(0, 0px); opacity:1" fill="url(#sw-gradient-0)"
    d="M0,126L15,114.3C30,103,60,79,90,58.3C120,37,150,19,180,14C210,9,240,19,270,28C300,37,330,47,360,42C390,37,420,19,450,28C480,37,510,75,540,77C570,79,600,47,630,49C660,51,690,89,720,95.7C750,103,780,79,810,65.3C840,51,870,47,900,56C930,65,960,89,990,95.7C1020,103,1050,93,1080,86.3C1110,79,1140,75,1170,77C1200,79,1230,89,1260,95.7C1290,103,1320,107,1350,102.7C1380,98,1410,84,1440,79.3C1470,75,1500,79,1530,81.7C1560,84,1590,84,1620,86.3C1650,89,1680,93,1710,81.7C1740,70,1770,42,1800,37.3C1830,33,1860,51,1890,49C1920,47,1950,23,1980,32.7C2010,42,2040,84,2070,88.7C2100,93,2130,61,2145,44.3L2160,28L2160,140L2145,140C2130,140,2100,140,2070,140C2040,140,2010,140,1980,140C1950,140,1920,140,1890,140C1860,140,1830,140,1800,140C1770,140,1740,140,1710,140C1680,140,1650,140,1620,140C1590,140,1560,140,1530,140C1500,140,1470,140,1440,140C1410,140,1380,140,1350,140C1320,140,1290,140,1260,140C1230,140,1200,140,1170,140C1140,140,1110,140,1080,140C1050,140,1020,140,990,140C960,140,930,140,900,140C870,140,840,140,810,140C780,140,750,140,720,140C690,140,660,140,630,140C600,140,570,140,540,140C510,140,480,140,450,140C420,140,390,140,360,140C330,140,300,140,270,140C240,140,210,140,180,140C150,140,120,140,90,140C60,140,30,140,15,140L0,140Z">
  </path>
</svg>