<?xml version="1.0" standalone="no"?>
<!DOCTYPE svg PUBLIC "-//W3C//DTD SVG 20010904//EN" "http://www.w3.org/TR/2001/REC-SVG-20010904/DTD/svg10.dtd">
<svg version="1.0" xmlns="http://www.w3.org/2000/svg" width="512.000000pt" height="512.000000pt"
  viewBox="0 0 512.000000 512.000000" preserveAspectRatio="xMidYMid meet">

  <g transform="translate(0.000000,512.000000) scale(0.100000,-0.100000)" fill="#20A0CD" stroke="none">
    <path d="M2339 5076 c-318 -46 -631 -186 -899 -403 -102 -83 -272 -259 -352
-366 -133 -180 -240 -397 -295 -605 -22 -80 -26 -120 -27 -232 -1 -126 1 -139
25 -191 34 -73 93 -137 146 -161 39 -17 42 -22 53 -76 7 -31 23 -101 36 -154
l24 -98 -31 -42 c-41 -58 -59 -102 -65 -168 -19 -175 90 -366 257 -451 52 -26
79 -33 145 -37 l81 -4 17 -48 c9 -26 37 -83 62 -126 127 -223 311 -393 560
-517 l91 -46 -9 -53 c-18 -99 -44 -126 -144 -152 -241 -62 -762 -360 -855
-488 -67 -94 -58 -220 24 -302 47 -46 174 -112 331 -170 551 -206 1385 -219
1980 -32 l109 35 43 -25 c115 -68 306 -114 468 -114 252 0 483 93 668 269 195
184 294 402 305 666 12 284 -77 521 -271 723 -129 134 -273 220 -462 274 -107
31 -372 33 -474 5 -108 -31 -214 -75 -279 -117 -34 -22 -61 -37 -61 -35 0 3
20 40 44 83 24 42 52 98 62 123 l18 47 81 4 c62 4 92 11 135 33 167 85 264
239 264 420 0 86 -20 146 -70 212 l-26 34 25 97 c14 53 31 123 37 154 11 54
14 59 53 77 76 34 140 124 168 235 26 103 -12 346 -80 519 -236 593 -780 1057
-1385 1182 -153 32 -385 41 -527 21z m494 -136 c629 -123 1211 -669 1357
-1272 48 -199 36 -330 -39 -409 -37 -38 -40 -39 -104 -39 -164 0 -287 83 -331
222 -3 9 -16 24 -29 33 -20 13 -29 14 -51 4 -27 -12 -30 -19 -40 -81 -8 -44
-51 -84 -102 -94 -49 -9 -159 2 -217 22 -27 9 -70 37 -101 64 -53 49 -76 90
-96 168 -21 82 -98 82 -120 0 -7 -26 -26 -56 -47 -76 -74 -70 -251 -136 -363
-136 -164 0 -410 126 -410 209 0 31 -33 65 -62 65 -26 0 -58 -27 -58 -50 0
-83 -103 -212 -195 -244 -78 -26 -195 -32 -248 -12 -45 17 -77 57 -77 96 0 51
-42 86 -83 71 -18 -7 -30 -24 -42 -62 -37 -112 -149 -186 -294 -196 -98 -7
-127 7 -166 79 -89 163 1 531 208 846 287 437 743 738 1225 807 132 19 346 13
485 -15z m-696 -1574 c142 -101 343 -158 480 -136 127 21 256 72 347 138 38
28 51 33 54 22 3 -8 27 -38 54 -66 l49 -52 -71 -10 c-82 -12 -100 -23 -100
-63 0 -44 29 -57 109 -51 42 3 109 -2 171 -13 120 -20 150 -16 150 20 0 24 3
25 58 25 74 0 152 23 192 56 l30 26 2 -79 c7 -254 -11 -573 -42 -768 -43 -270
-119 -446 -265 -618 l-55 -65 -70 19 c-69 20 -72 20 -108 2 -28 -14 -41 -28
-51 -59 -13 -38 -13 -44 6 -81 l21 -40 -87 -47 c-284 -149 -507 -168 -777 -66
-296 111 -522 314 -649 581 -93 199 -134 442 -151 909 -4 102 -4 211 0 242 l7
56 61 -32 c57 -29 68 -31 163 -31 97 0 101 -1 97 -21 -7 -40 21 -49 106 -34
42 8 125 15 185 16 121 2 140 10 135 58 -4 43 -42 59 -142 60 l-81 1 43 39
c24 22 50 52 60 68 9 15 18 28 19 28 2 0 24 -15 50 -34z m-827 -313 c0 -60 3
-124 6 -144 l6 -36 -63 -6 c-35 -4 -73 -8 -83 -10 -17 -2 -23 11 -41 88 -12
50 -25 104 -28 122 l-6 31 72 17 c40 9 83 22 97 30 14 8 28 14 33 15 4 0 7
-48 7 -107z m2531 88 c24 -11 69 -24 100 -30 l56 -12 -19 -92 c-28 -141 -36
-160 -62 -152 -11 3 -48 9 -80 12 l-59 6 7 90 c3 50 6 114 6 144 0 29 2 53 4
53 2 0 23 -9 47 -19z m-2517 -413 c3 -13 6 -48 6 -79 l0 -56 -48 10 c-62 13
-96 4 -111 -30 -10 -23 -9 -30 7 -52 10 -14 30 -27 43 -29 45 -5 109 -25 119
-36 8 -11 50 -203 50 -233 0 -22 -73 -15 -127 12 -64 32 -127 100 -161 173
-22 46 -27 72 -27 133 0 66 4 81 27 117 38 56 103 89 179 91 30 1 38 -3 43
-21z m2614 -15 c62 -39 87 -89 86 -173 -1 -42 -9 -87 -24 -125 -41 -106 -166
-205 -258 -205 l-38 0 19 103 c11 56 21 108 23 115 5 18 103 62 138 62 59 0
88 67 46 105 -20 18 -59 17 -141 -1 l-25 -6 4 69 c2 37 5 74 8 82 8 23 109 7
162 -26z m341 -838 c403 -85 691 -435 691 -840 0 -245 -91 -458 -268 -627
-346 -330 -882 -317 -1214 30 -120 126 -198 279 -228 448 -20 110 -9 290 24
389 39 122 36 163 -23 265 -27 46 -49 86 -47 87 1 2 34 -6 72 -18 109 -32 158
-18 261 72 108 94 252 166 393 194 89 18 254 18 339 0z m-1103 -422 c16 -22
18 -72 3 -110 -6 -15 -19 -66 -29 -113 l-18 -85 -37 2 c-51 4 -106 33 -127 69
-9 16 -21 53 -26 81 l-9 53 111 59 c61 33 113 60 115 60 2 1 10 -7 17 -16z
m-806 -159 c100 -21 255 -21 358 0 46 10 85 16 86 14 1 -2 11 -33 20 -71 32
-121 89 -171 239 -212 l57 -16 0 -39 c0 -35 -6 -44 -60 -92 -114 -100 -238
-170 -392 -221 -277 -93 -643 -86 -841 15 -92 46 -179 165 -148 202 16 19 243
120 328 147 169 52 217 94 250 220 9 38 20 69 23 69 3 0 39 -7 80 -16z m-714
-637 c263 -260 954 -243 1365 33 35 24 79 57 98 73 l35 30 21 -64 c51 -150
123 -269 232 -380 l74 -76 -98 -26 c-296 -80 -472 -101 -823 -101 -308 1 -452
13 -676 59 -213 44 -466 135 -582 209 -57 36 -79 84 -63 138 14 44 60 84 220
190 l103 68 28 -57 c15 -32 45 -75 66 -96z" />
    <path d="M1894 2884 c-77 -28 -107 -80 -66 -117 23 -21 49 -21 95 -2 51 21
113 19 157 -6 47 -26 86 -20 100 16 14 37 -5 69 -60 99 -39 21 -60 26 -116 25
-38 0 -87 -7 -110 -15z" />
    <path d="M3013 2885 c-43 -19 -83 -59 -83 -85 0 -26 34 -60 61 -60 11 0 32 9
46 20 31 24 107 27 160 5 47 -20 76 -19 96 3 36 40 16 75 -63 111 -54 25 -168
28 -217 6z" />
    <path d="M2480 2708 c-54 -28 -70 -66 -46 -103 20 -30 55 -33 97 -8 27 16 31
16 58 0 42 -25 77 -22 97 8 24 37 8 75 -46 103 -24 12 -60 22 -80 22 -20 0
-56 -10 -80 -22z" />
    <path d="M2224 2416 c-48 -21 -102 -74 -115 -113 -32 -98 55 -319 157 -400 83
-65 168 -93 286 -93 230 0 393 145 439 392 11 58 10 68 -8 110 -22 49 -67 88
-122 107 -51 17 -596 14 -637 -3z m632 -132 c18 -18 24 -32 20 -47 -3 -12 -6
-28 -6 -34 0 -10 -71 -13 -320 -13 l-319 0 -7 37 c-6 32 -3 40 20 60 27 23 29
23 307 23 l280 0 25 -26z m-46 -221 c0 -19 -55 -72 -101 -98 -45 -24 -69 -30
-140 -33 -50 -3 -101 1 -121 7 -52 17 -122 65 -147 100 l-22 31 265 0 c146 0
266 -3 266 -7z" />
    <path d="M3764 1549 c-69 -20 -127 -71 -164 -143 -33 -66 -35 -74 -35 -170 0
-120 22 -198 97 -355 69 -144 75 -161 103 -291 40 -182 80 -240 167 -240 82 0
118 65 139 258 17 155 24 161 38 36 15 -132 27 -187 48 -231 35 -74 133 -83
189 -19 32 37 52 95 92 267 11 49 43 134 75 200 89 185 102 234 102 374 0 111
-2 124 -27 171 -74 141 -234 190 -415 128 -80 -28 -87 -27 -175 5 -61 22 -175
27 -234 10z m224 -134 c89 -31 119 -31 207 0 143 51 250 23 291 -74 8 -19 14
-66 14 -108 0 -89 -35 -202 -103 -340 -50 -99 -70 -157 -91 -258 -22 -109 -36
-156 -46 -150 -9 5 -25 98 -35 200 -18 187 -69 269 -154 250 -64 -14 -91 -82
-116 -287 -9 -70 -19 -138 -24 -150 -9 -23 -9 -22 -21 7 -6 17 -20 71 -30 120
-24 113 -45 173 -109 306 -177 367 -78 587 217 484z" />
    <path d="M4144 1201 l-78 -70 -29 25 c-36 31 -81 32 -101 2 -23 -32 -20 -43
20 -88 43 -47 93 -64 144 -50 39 11 195 148 205 181 10 31 -20 69 -55 69 -22
0 -48 -17 -106 -69z" />
    <path d="M1321 1763 c-12 -10 -43 -54 -69 -97 -43 -72 -53 -83 -117 -118 -93
-51 -119 -81 -112 -126 8 -45 20 -58 87 -92 81 -41 112 -70 150 -142 43 -82
56 -96 96 -104 45 -8 75 12 110 73 61 108 72 121 148 163 84 46 106 70 106
115 0 40 -23 64 -103 109 -72 40 -106 75 -142 147 -14 26 -35 57 -47 69 -27
25 -78 26 -107 3z m75 -175 c23 -46 82 -106 127 -129 20 -11 37 -23 37 -27 -1
-4 -24 -20 -53 -37 -37 -21 -64 -48 -94 -92 l-42 -63 -38 58 c-23 35 -60 72
-95 96 l-57 39 58 37 c41 27 68 54 92 94 19 30 37 56 41 56 4 0 15 -15 24 -32z" />
  </g>
</svg>