<?xml version="1.0" standalone="no"?>
<!DOCTYPE svg PUBLIC "-//W3C//DTD SVG 20010904//EN" "http://www.w3.org/TR/2001/REC-SVG-20010904/DTD/svg10.dtd">
<svg version="1.0" xmlns="http://www.w3.org/2000/svg" width="512.000000pt" height="512.000000pt"
  viewBox="0 0 512.000000 512.000000" preserveAspectRatio="xMidYMid meet">

  <g transform="translate(0.000000,512.000000) scale(0.100000,-0.100000)" fill="#20A0CD" stroke="none">
    <path d="M105 5015 l-25 -24 0 -2431 0 -2431 25 -24 24 -25 1471 0 1471 0 24
25 25 24 0 1036 c0 569 4 1035 8 1035 15 0 87 -56 115 -90 57 -67 113 -216
176 -465 72 -288 91 -460 100 -910 8 -409 9 -414 76 -505 132 -179 396 -199
555 -40 47 47 64 75 103 166 116 276 190 577 217 884 5 63 10 212 10 330 0
118 5 258 10 310 25 242 94 476 202 687 39 76 97 189 129 252 185 365 263 861
190 1218 -81 392 -342 754 -656 907 -167 82 -198 88 -491 93 -335 6 -500 -18
-691 -102 l-53 -24 0 40 c0 29 -7 47 -25 64 l-24 25 -1471 0 -1471 0 -24 -25z
m2855 -2455 l0 -2320 -1360 0 -1360 0 0 2320 0 2320 1360 0 1360 0 0 -2320z
m1142 2306 c160 -31 264 -91 414 -240 225 -224 343 -489 360 -811 11 -190 -21
-433 -81 -632 -41 -133 -98 -264 -189 -431 -89 -164 -150 -305 -192 -444 -70
-233 -84 -341 -94 -748 -7 -259 -14 -378 -29 -477 -50 -331 -179 -715 -264
-790 -78 -69 -188 -70 -270 -2 -72 59 -71 53 -78 459 -8 446 -30 637 -109 952
-33 133 -100 339 -127 393 -59 117 -180 231 -282 265 l-41 13 0 1178 0 1179
68 33 c106 54 222 88 372 111 74 11 474 5 542 -8z" />
    <path d="M425 4695 l-25 -24 0 -2111 0 -2111 25 -24 24 -25 1151 0 1151 0 24
25 25 24 0 2111 0 2111 -25 24 -24 25 -1151 0 -1151 0 -24 -25z m705 -141 c0
-3 -13 -24 -29 -47 -80 -117 -165 -329 -196 -488 -23 -121 -30 -313 -16 -454
33 -322 112 -572 276 -875 211 -390 274 -643 275 -1110 1 -386 40 -672 134
-972 l15 -48 -514 0 -515 0 0 2000 0 2000 285 0 c157 0 285 -3 285 -6z m1510
-113 l0 -119 -247 -5 c-185 -3 -264 -9 -312 -21 -351 -90 -610 -351 -698 -702
-12 -50 -17 -109 -17 -214 1 -185 15 -237 133 -504 106 -240 131 -310 176
-481 53 -198 75 -367 85 -644 6 -160 21 -356 44 -560 20 -172 36 -320 36 -327
0 -26 47 -64 78 -64 68 0 64 -11 188 575 62 297 123 570 135 607 48 151 174
313 318 409 l76 51 3 -72 3 -72 -64 -67 c-35 -36 -78 -93 -94 -126 -62 -122
-152 -445 -192 -687 -35 -210 -41 -284 -48 -576 l-6 -282 -241 2 -241 3 -36
122 c-85 282 -108 457 -119 883 -11 423 -26 528 -116 801 -25 75 -72 188 -103
250 -32 63 -90 176 -129 252 -148 289 -224 634 -208 942 12 252 94 477 245
682 l46 63 653 0 652 0 0 -119z m0 -1053 l0 -773 -83 -42 c-162 -83 -299 -216
-393 -380 -51 -90 -50 -98 -25 150 l17 178 117 117 117 117 40 120 c22 65 40
125 40 132 0 9 -117 53 -143 53 -3 0 -22 -49 -41 -108 -31 -93 -43 -115 -81
-152 l-45 -44 0 91 0 92 120 199 c66 110 120 209 120 221 0 11 -17 54 -37 95
l-37 74 77 103 77 103 0 133 0 133 -80 0 -80 0 0 -106 0 -106 -37 -50 -37 -50
-44 88 c-24 49 -46 91 -48 93 -4 5 -144 -60 -144 -66 0 -2 49 -101 109 -221
l109 -219 -51 -86 -52 -87 -66 66 -67 67 -37 149 c-33 132 -40 148 -56 143
-11 -3 -27 -7 -36 -9 -10 -3 -37 -10 -59 -15 l-42 -11 29 -113 c16 -61 29
-117 29 -124 0 -6 -36 -23 -80 -38 -44 -15 -80 -29 -80 -33 0 -23 46 -142 55
-142 6 0 50 13 97 29 l86 29 71 -72 71 -71 -20 -30 c-18 -27 -20 -47 -20 -230
1 -156 -8 -290 -37 -605 l-38 -405 -12 155 c-29 366 -98 630 -263 1000 -96
218 -119 290 -127 405 -22 344 192 668 515 781 104 36 157 42 390 43 l212 1 0
-772z m0 -2083 l0 -745 -120 0 -120 0 0 203 c0 332 30 593 100 874 46 187 121
413 137 413 1 0 3 -335 3 -745z" />
  </g>
</svg>