<svg xmlns="http://www.w3.org/2000/svg" width="236" height="236" viewBox="0 0 236 236">
  <path fill="#016B56"
    d="M179.11 1.23c-19.72 2.23-37.1 13.93-56.5 14.7-35.29 1.4-61.04-22.26-90.36-11.72-7.51 2.7-15.83 10.37-19.52 16.16-26.48 41.51 4.86 98.37 15.41 141.52 2.32 9.46 4.68 19.28 6.93 28.76 4.38 18.4 13.1 38.9 26.43 44.91 18.5 8.36 19.84-24.8 24.32-43.77 3.67-15.55 13.94-38.95 26.81-43.64 16.87-6.14 29.68 21.91 34.04 35.42 3.09 9.59 4.22 18.59 6.6 29 2.04 8.93 4.71 21.96 12.06 23.85 17.17 4.42 28.66-27.08 32.28-39.04 5.52-18.27 8.38-37.96 14.57-55.89 11.45-33.15 29.97-82.73 12.55-115.68-7.45-14.09-22.39-27.21-45.62-24.58z" />
</svg>