<?xml version="1.0" encoding="UTF-8"?>
<!DOCTYPE svg PUBLIC "-//W3C//DTD SVG 1.1//EN" "http://www.w3.org/Graphics/SVG/1.1/DTD/svg11.dtd">
<!-- Creator: CorelDRAW 2019 (64-Bit) -->
<svg xmlns="http://www.w3.org/2000/svg" xml:space="preserve" width="184px" height="202px" version="1.1" style="shape-rendering:geometricPrecision; text-rendering:geometricPrecision; image-rendering:optimizeQuality; fill-rule:evenodd; clip-rule:evenodd"
viewBox="0 0 184 202"
 xmlns:xlink="http://www.w3.org/1999/xlink"
 xmlns:xodm="http://www.corel.com/coreldraw/odm/2003">
 <defs>
  <style type="text/css">
   <![CDATA[
    .str0 {stroke:white;stroke-width:0.9;stroke-miterlimit:22.9256}
    .fil0 {fill:white}
   ]]>
  </style>
 </defs>
 <g id="Слой_x0020_1">
  <metadata id="CorelCorpID_0Corel-Layer"/>
  <g id="SVGRepo_bgCarrier">
  </g>
  <g id="SVGRepo_tracerCarrier">
  </g>
  <g id="SVGRepo_iconCarrier">
   <g>
    <g>
     <path class="fil0 str0" d="M111.05 1l-38.1 0c-39.9,0 -72.36,32.45 -72.36,72.35l0 34.32c0,29.7 18.25,56.4 45.7,67.28l0 22.25c0,1.5 0.89,2.87 2.27,3.48 0.5,0.22 1.02,0.32 1.54,0.32 0.93,0 1.85,-0.34 2.56,-0.98l22.08 -20.01 36.31 0c39.9,0 72.36,-32.45 72.36,-72.35l0 -34.31c0,-39.9 -32.46,-72.35 -72.36,-72.35zm64.74 106.67c0,35.69 -29.04,64.73 -64.74,64.73l-37.77 0c-0.95,0 -1.86,0.35 -2.56,0.98l-16.81 15.23 0 -16.3c0,-1.62 -1.02,-3.06 -2.54,-3.59 -25.82,-9.13 -43.16,-33.67 -43.16,-61.05l0 -34.32c0,-35.69 29.04,-64.73 64.74,-64.73l38.1 0c35.7,0 64.74,29.04 64.74,64.73l0 34.32z"/>
     <path class="fil0 str0" d="M142.34 117.14l-23.41 -15.2c-2.56,-1.67 -5.61,-2.23 -8.59,-1.61 -2.99,0.62 -5.56,2.39 -7.22,4.96l-1.1 1.69c-10.13,-3.35 -21.3,-7.63 -27.99,-26.98l2.77 -2.41 0 0c4.75,-4.14 5.25,-11.36 1.12,-16.13l-18.31 -21.06c-1.38,-1.59 -3.79,-1.75 -5.38,-0.38l-11.5 10c-10.08,8.76 -5.37,21.73 -3.82,25.99 0.07,0.19 0.15,0.38 0.25,0.56 0.4,0.71 9.95,17.75 25.37,33.46 15.48,15.77 43.44,30.34 44.29,30.76 3.2,2.07 6.79,3.07 10.34,3.07 6.24,0 12.36,-3.06 16.01,-8.67l8.29 -12.77c1.14,-1.78 0.64,-4.13 -1.12,-5.28zm-13.57 13.9c-3.43,5.29 -10.52,6.79 -16.12,3.18 -0.28,-0.15 -28.05,-14.61 -42.68,-29.52 -13.68,-13.94 -22.77,-29.42 -24.01,-31.58 -3.01,-8.46 -2.48,-13.66 1.77,-17.35l8.63 -7.5 15.81 18.19c1.41,1.62 1.24,3.98 -0.36,5.37l-4.68 4.07c-1.14,0.99 -1.59,2.55 -1.14,3.99 7.97,25.89 23.46,30.98 34.77,34.69l1.65 0.55c1.65,0.55 3.46,-0.08 4.4,-1.54l2.7 -4.16c0.56,-0.86 1.41,-1.44 2.4,-1.65 1,-0.22 2.01,-0.02 2.87,0.54l20.22 13.13 -6.23 9.59z"/>
     <path class="fil0 str0" d="M100.69 62.88c-2.02,-0.58 -4.13,0.59 -4.7,2.62 -0.58,2.02 0.59,4.13 2.62,4.71 5.67,1.61 10.19,6.14 11.79,11.82 0.48,1.67 2,2.78 3.67,2.78 0.34,0 0.69,-0.05 1.03,-0.14 2.02,-0.58 3.21,-2.68 2.63,-4.7 -2.31,-8.21 -8.84,-14.76 -17.04,-17.09z"/>
     <path class="fil0 str0" d="M129.68 85.63c0.34,0 0.69,-0.05 1.04,-0.14 2.02,-0.58 3.2,-2.68 2.63,-4.7 -4.5,-15.94 -17.18,-28.64 -33.1,-33.17 -2.02,-0.59 -4.13,0.6 -4.7,2.62 -0.58,2.02 0.6,4.13 2.62,4.7 13.39,3.81 24.06,14.51 27.85,27.92 0.47,1.67 1.99,2.77 3.66,2.77z"/>
     <path class="fil0 str0" d="M98.61 29.88c-2.02,-0.58 -4.13,0.59 -4.71,2.62 -0.57,2.02 0.6,4.13 2.62,4.71 22.7,6.45 40.78,24.57 47.19,47.29 0.47,1.67 2,2.77 3.66,2.77 0.34,0 0.69,-0.04 1.04,-0.14 2.02,-0.57 3.2,-2.68 2.63,-4.7 -7.12,-25.24 -27.21,-45.37 -52.43,-52.55z"/>
    </g>
   </g>
  </g>
 </g>
</svg>
