<svg width="80" height="80" viewBox="0 0 80 80" fill="none" xmlns="http://www.w3.org/2000/svg">
<path d="M78.9999 79.4529H0.991325C0.529316 79.4529 0.165039 79.0798 0.165039 78.6266C0.165039 70.8347 6.48213 64.5176 14.2741 64.5176H65.726C73.5179 64.5176 79.835 70.8347 79.835 78.6266C79.835 79.0798 79.4619 79.4529 78.9999 79.4529ZM4.66075 76.1389H75.3304C75.8813 76.1389 76.2811 75.6147 76.139 75.0816C74.9573 70.9057 71.1102 67.8405 66.5612 67.8405H13.4389C8.88991 67.8405 5.04279 70.9057 3.86112 75.0816C3.71007 75.6058 4.10989 76.1389 4.66075 76.1389Z" fill="#0097C4"/>
<path d="M65.4417 67.8405C64.5266 67.8405 63.7803 67.0942 63.7803 66.179V58.4315C63.7803 57.5163 64.5266 56.77 65.4417 56.77C66.3569 56.77 67.1032 57.5163 67.1032 58.4315V66.179C67.1032 67.0942 66.3658 67.8405 65.4417 67.8405Z" fill="#0097C4"/>
<path d="M65.868 45.8329C65.8058 45.8329 65.7525 45.8329 65.6903 45.824C64.7751 45.7263 64.1177 44.9089 64.2154 44.0027C64.3043 43.203 64.3398 42.3767 64.3398 41.5593C64.3398 34.7802 61.3634 28.3832 56.1835 24.003C56.068 23.9052 55.9437 23.8075 55.8193 23.7009C55.1085 23.1234 54.993 22.0839 55.5705 21.3642C56.148 20.6534 57.1875 20.5379 57.9072 21.1154C58.0494 21.2309 58.1826 21.3464 58.3248 21.4619C64.2598 26.4729 67.6627 33.794 67.6627 41.5505C67.6627 42.4834 67.6094 43.4163 67.5117 44.3403C67.4228 45.2021 66.7032 45.8329 65.868 45.8329Z" fill="#0097C4"/>
<path d="M41.3817 67.8401C30.1779 67.8401 20.1914 60.7234 16.5309 50.1416C16.2288 49.2798 16.6908 48.3291 17.5615 48.027C18.4322 47.7338 19.374 48.187 19.6761 49.0577C22.8657 58.3068 31.5906 64.5172 41.3817 64.5172C47.9475 64.5172 54.2113 61.6919 58.5738 56.7786C59.1779 56.0944 60.2352 56.0322 60.9193 56.6364C61.6035 57.2406 61.6657 58.289 61.0615 58.982C56.0682 64.6061 48.8982 67.8401 41.3817 67.8401Z" fill="#0097C4"/>
<path d="M41.3817 59.5331C34.9225 59.5331 28.9252 56.0414 25.7356 50.4173C25.2825 49.6177 25.5668 48.6048 26.3575 48.1517C27.1572 47.6985 28.17 47.9828 28.6231 48.7736C31.2264 53.3582 36.113 56.2102 41.3817 56.2102C49.4669 56.2102 56.0416 49.6354 56.0416 41.5503C56.0416 36.8235 53.7405 32.3545 49.8845 29.6002C49.1381 29.0671 48.9693 28.0365 49.4935 27.2813C50.0266 26.5349 51.0573 26.3572 51.8125 26.8903C56.5392 30.2577 59.3646 35.7396 59.3646 41.5414C59.3557 51.4746 51.2972 59.5331 41.3817 59.5331Z" fill="#0097C4"/>
<path d="M62.4031 58.982C57.9785 58.982 54.3801 55.3836 54.3801 50.959C54.3801 46.5344 57.9785 42.936 62.4031 42.936C66.8277 42.936 70.4261 46.5344 70.4261 50.959C70.4261 55.3836 66.8277 58.982 62.4031 58.982ZM62.4031 46.2589C59.8087 46.2589 57.703 48.3735 57.703 50.959C57.703 53.5445 59.8176 55.6591 62.4031 55.6591C64.9886 55.6591 67.1032 53.5445 67.1032 50.959C67.1032 48.3646 64.9975 46.2589 62.4031 46.2589Z" fill="#0097C4"/>
<path d="M39.9957 51.2345H6.80208C5.88695 51.2345 5.14062 50.4882 5.14062 49.5731C5.14062 48.6579 5.88695 47.9116 6.80208 47.9116H39.9957C40.9108 47.9116 41.6571 48.6579 41.6571 49.5731C41.6571 50.4882 40.9108 51.2345 39.9957 51.2345Z" fill="#0097C4"/>
<path d="M37.5167 36.6549L32.8255 31.9637C31.1285 30.2667 31.1285 27.5302 32.8255 25.8332L52.7985 5.86015C54.4955 4.16315 57.232 4.16315 58.929 5.86015L63.6202 10.5513C65.3172 12.2483 65.3172 14.9848 63.6202 16.6818L43.6472 36.6549C41.9591 38.343 39.2137 38.343 37.5167 36.6549ZM37.5167 31.9637C39.2137 33.6607 41.9502 33.6607 43.6472 31.9637L58.929 16.6818C60.626 14.9848 60.626 12.2483 58.929 10.5513C57.232 8.85433 54.4955 8.85433 52.7985 10.5513L37.5167 25.8332C35.8285 27.5213 35.8285 30.2667 37.5167 31.9637Z" fill="#0097C4"/>
<path d="M63.6293 12.6657C63.1673 12.6657 62.6964 12.4703 62.3676 12.0882C61.7901 11.413 61.9056 10.3912 62.5276 9.76041L65.8682 6.41973L63.0606 3.61213L59.3201 7.35263C58.7337 7.93903 57.792 8.08118 57.1256 7.60141C56.2727 6.98835 56.2016 5.78891 56.9124 5.06924L60.2886 1.69301C61.8168 0.164829 64.3045 0.164829 65.8327 1.69301L67.7874 3.64767C69.3155 5.17586 69.3155 7.6636 67.7874 9.19178L64.8021 12.1771C64.4822 12.5058 64.0557 12.6657 63.6293 12.6657Z" fill="#0097C4"/>
</svg>
